<?xml version="1.0" encoding="UTF-8"?>
<svg id="Capa_1" data-name="Capa 1" xmlns="http://www.w3.org/2000/svg" viewBox="0 0 1080 1080">
  <defs>
    <style>
      .cls-1 {
        fill: #fff;
      }
    </style>
  </defs>
  <path class="cls-1" d="m829.66,237.17l29.97,9.1c-33.52,8.21-285.25,325.2-5.55,603.13l58.6,46.39c-86.57-26.64-235.75-57.49-339.63-294.93-16-36.56-88.57-285.77,117.43-483.48,44.17,58.96,72.23,88.45,139.18,119.79Z"/>
  <path class="cls-1" d="m445.85,433.08l21.57-27.5c-.04,125.94,15.82,206.11,114.51,330.16,126.09,158.5,323.43,172.87,323.43,172.87-228.42,21.98-357.97-80.86-381.14-93.94-18.87-10.66-187.58-114-256.67-323.11,120.04,29.63,153.33-30.97,178.31-58.48Z"/>
  <path class="cls-1" d="m271.29,722.43l1.2-39.07c76.36,75.92,117.1,124.1,243.74,183.8,93.23,43.95,206.89,71.92,382.25,58.16-136.17,52.48-332.95,40.14-412.25,19.98-21-5.34-146.7-23.09-318.91-148.11,95.4-5.06,100.72-64.11,103.97-74.76Z"/>
</svg>